<svg id="visual" viewBox="0 0 900 600" width="900" height="600" xmlns="http://www.w3.org/2000/svg" xmlns:xlink="http://www.w3.org/1999/xlink" version="1.1"><path d="M0 358L30 355C60 352 120 346 180 336C240 326 300 312 360 315.3C420 318.7 480 339.3 540 341.7C600 344 660 328 720 324.3C780 320.7 840 329.3 870 333.7L900 338L900 601L870 601C840 601 780 601 720 601C660 601 600 601 540 601C480 601 420 601 360 601C300 601 240 601 180 601C120 601 60 601 30 601L0 601Z" fill="#32f1a2"></path><path d="M0 394L30 388.5C60 383 120 372 180 368.7C240 365.3 300 369.7 360 380C420 390.3 480 406.7 540 404.3C600 402 660 381 720 374.5C780 368 840 376 870 380L900 384L900 601L870 601C840 601 780 601 720 601C660 601 600 601 540 601C480 601 420 601 360 601C300 601 240 601 180 601C120 601 60 601 30 601L0 601Z" fill="#30d48f"></path><path d="M0 468L30 465C60 462 120 456 180 459.7C240 463.3 300 476.7 360 474.5C420 472.3 480 454.7 540 449.3C600 444 660 451 720 451.8C780 452.7 840 447.3 870 444.7L900 442L900 601L870 601C840 601 780 601 720 601C660 601 600 601 540 601C480 601 420 601 360 601C300 601 240 601 180 601C120 601 60 601 30 601L0 601Z" fill="#2db87c"></path><path d="M0 558L30 557.2C60 556.3 120 554.7 180 546.7C240 538.7 300 524.3 360 523.7C420 523 480 536 540 544.2C600 552.3 660 555.7 720 555.3C780 555 840 551 870 549L900 547L900 601L870 601C840 601 780 601 720 601C660 601 600 601 540 601C480 601 420 601 360 601C300 601 240 601 180 601C120 601 60 601 30 601L0 601Z" fill="#2a9c6a"></path></svg>