<?xml version="1.0" encoding="iso-8859-1"?>
<!-- Uploaded to: SVG Repo, www.svgrepo.com, Generator: SVG Repo Mixer Tools -->
<svg xmlns="http://www.w3.org/2000/svg" xmlns:xlink="http://www.w3.org/1999/xlink" version="1.1" id="Layer_1"  viewBox="0 0 446.942 446.942" xml:space="preserve" width="512" height="512">
<g>
	<g>
		<path style="fill:#64523C;" d="M49.771,328.926C22.283,328.926,0,308.303,0,308.303s22.283-20.621,49.771-20.621    C22.283,287.682,0,267.057,0,267.057c4.078-3.691,8.726-7.018,13.255-10.172c8.107-5.645,16.9-9.814,26.857-10.662    c0.78-0.067,9.658-0.298,9.658,0.166v-0.036c-4.172-0.591-8.58-1.9-12.496-3.439c-3.023-1.189-5.974-2.8-8.601-4.706    c-9.246-6.71-15.862-16.697-19.377-27.487c-0.342-1.05-0.47-1.636-0.47-1.636c10.892-7.346,24.758-10.641,37.74-8.347    c5.467,0.968,10.818,2.958,15.852,5.929l0.113-0.107c-4.715-3.503-8.635-7.674-11.623-12.328    c-5.414-8.31-7.971-18.371-7.927-28.24c0.004-0.883,0.151-9.645,0.927-9.734c13.143-1.539,26.728,1.229,37.514,9.154    c5.162,3.734,9.672,8.758,13.121,14.688c0.057,0.094,0.104,0.192,0.159,0.285c-0.038-0.105-0.102-0.191-0.159-0.285    c-3.477-5.918-5.624-12.272-6.373-18.653c-1.102-9.331,1.191-17.829,4.018-26.623c1.136-3.535,2.472-8.065,5.873-10.101    c1.683-1.008,4.808,1.133,6.461,1.915c10.008,4.617,18.705,12.62,23.822,22.402c2.977,5.69,4.789,12.156,5.257,18.999    c0.005,0.061,0.005,0.115,0.009,0.173c0.003-0.058-0.004-0.112-0.009-0.173c-0.266-3.65-0.159-7.428,0.39-11.046    c1.848-12.179,8.648-23.607,15.774-33.425c0.224-0.308,4.442-5.563,4.453-5.551c0.001,0.001,20.622,22.284,20.622,49.768    c0,0.145-0.008,0.284-0.01,0.427c0.02-0.143,0.01-0.282,0.01-0.427c0-27.484,20.624-49.768,20.624-49.768    s20.622,22.283,20.622,49.768c0,0.145-0.008,0.284-0.01,0.427c0.019-0.143,0.01-0.282,0.01-0.427    c0-27.484,20.624-49.768,20.624-49.768s20.621,22.283,20.621,49.768c0,0.145-0.008,0.284-0.008,0.427    c0.018-0.143,0.008-0.282,0.008-0.427c0-27.484,20.625-49.768,20.625-49.768s20.621,22.283,20.621,49.768    c0,0.145-0.008,0.284-0.01,0.427c0.02-0.143,0.01-0.282,0.01-0.427c0-17.648,8.016-39.223,24.119-48.243    c0.994-0.558,1.572-0.841,1.572-0.841c10.432,8.494,17.867,21.54,18.381,35.118c0.307,6.47-0.902,13.02-3.525,19.368    c-0.336,0.81-0.688,1.611-1.055,2.396l0.117,0.043c0.293-0.814,0.603-1.625,0.938-2.439c1.977-4.853,4.719-9.393,8.303-13.217    c6.318-6.744,13.936-11.314,22.873-13.688c2.008-0.533,16.734-4.061,17.623-1.484c2.051,6.251,2.641,13.004,2.43,19.554    c-0.58,18.03-14.799,32.914-30.223,40.447v124.128H49.771z"/>
		<path style="opacity:0.2;fill:#222222;" d="M195.465,118.016c0,0-20.624,22.283-20.624,49.768    c0-27.483-20.621-49.767-20.622-49.768c-0.011-0.012-4.229,5.243-4.453,5.551c-7.126,9.817-13.927,21.246-15.774,33.425    c-0.549,3.618-0.655,7.395-0.39,11.046c-0.468-6.843-2.28-13.309-5.257-18.999c-5.117-9.782-13.814-17.785-23.822-22.402    c-1.653-0.782-4.778-2.923-6.461-1.915c-3.401,2.035-4.737,6.565-5.873,10.101c-2.826,8.794-5.119,17.292-4.018,26.623    c0.749,6.382,2.896,12.735,6.373,18.653c-3.449-5.93-7.959-10.953-13.121-14.688c-10.785-7.926-24.371-10.693-37.514-9.154    c-0.775,0.09-0.923,8.852-0.927,9.734c-0.044,9.869,2.513,19.931,7.927,28.24c2.988,4.654,6.908,8.825,11.623,12.328l-0.113,0.107    c-5.033-2.971-10.385-4.961-15.852-5.929c-12.982-2.294-26.849,1.001-37.74,8.347c0,0,0.128,0.586,0.47,1.636    c3.515,10.79,10.131,20.777,19.377,27.487c2.627,1.906,5.577,3.518,8.601,4.706c3.582,1.407,7.574,2.616,11.422,3.267    c-2.379-0.162-7.972-0.01-8.584,0.043c-9.957,0.848-18.75,5.017-26.857,10.662c-4.529,3.153-9.177,6.48-13.255,10.172    c0,0,22.283,20.625,49.771,20.625C22.283,287.682,0,308.303,0,308.303s22.283,20.623,49.771,20.623h166.307V167.361    C215.867,140.073,195.465,118.016,195.465,118.016z M49.771,246.389c0-0.017-0.035-0.03-0.058-0.045    c0.02,0.002,0.039,0.006,0.058,0.009V246.389z"/>
		<g>
			<path style="fill:#997668;" d="M108.027,236.825c-2.016,0-4.024-0.807-5.503-2.401c-2.816-3.038-2.636-7.783,0.402-10.6     l18.903-17.52c3.039-2.815,7.784-2.635,10.599,0.402c2.816,3.038,2.636,7.783-0.402,10.6l-18.903,17.52     C111.68,236.164,109.851,236.825,108.027,236.825z"/>
			<path style="fill:#997668;" d="M195.194,280.638c-2.047,0-4.087-0.833-5.567-2.472l-19.952-22.081     c-2.777-3.073-2.537-7.816,0.537-10.593c3.073-2.778,7.816-2.537,10.593,0.536l19.952,22.081     c2.777,3.073,2.537,7.816-0.537,10.593C198.785,279.999,196.986,280.638,195.194,280.638z"/>
			<path style="fill:#997668;" d="M245.526,210.14c-2.412,0-4.781-1.162-6.229-3.314c-2.313-3.438-1.4-8.098,2.035-10.409     l19.08-12.834c3.436-2.314,8.098-1.4,10.408,2.036c2.313,3.438,1.4,8.098-2.035,10.409l-19.08,12.834     C248.422,209.726,246.965,210.14,245.526,210.14z"/>
			<path style="fill:#997668;" d="M195.197,224.022c-2.267,0-4.507-1.023-5.982-2.97l-15.386-20.3     c-2.502-3.301-1.854-8.005,1.447-10.508c3.299-2.501,8.005-1.855,10.507,1.447l15.386,20.3c2.502,3.301,1.855,8.005-1.447,10.508     C198.367,223.526,196.775,224.022,195.197,224.022z"/>
			<path style="fill:#997668;" d="M299.467,208.139c-1.65,0-3.309-0.541-4.695-1.654c-3.229-2.596-3.74-7.316-1.147-10.545     l14-17.416c2.596-3.227,7.316-3.74,10.545-1.146c3.229,2.596,3.742,7.316,1.147,10.545l-14,17.416     C303.836,207.181,301.661,208.139,299.467,208.139z"/>
			<path style="fill:#997668;" d="M98.469,273.638c-1.752,0-3.512-0.61-4.935-1.854l-19.333-16.911     c-3.118-2.728-3.434-7.466-0.707-10.583c2.728-3.119,7.464-3.436,10.583-0.708l19.333,16.911     c3.118,2.728,3.434,7.466,0.707,10.583C102.634,272.771,100.557,273.638,98.469,273.638z"/>
		</g>
	</g>
	<path style="fill:#F5CFB2;" d="M415.278,259.849l-55.145-55.21c-68.645,0-124.289,55.645-124.289,124.287h154.631   c21.535,0,38.99-17.457,38.99-38.99C429.465,277.821,423.944,267,415.278,259.849z"/>
	<circle style="fill:#333E48;" cx="367.303" cy="253.057" r="10.498"/>
	<ellipse style="fill:#333E48;" cx="428.456" cy="280.625" rx="18.486" ry="13.763"/>
	<g>
		<path style="opacity:0.2;fill:#222222;" d="M253.362,286.223c-0.152,0-19.777,0-19.777,0c-9.683,0-17.534,7.85-17.534,17.533    v12.584c0,6.926,5.664,12.586,12.586,12.586h67.43C296.067,305.341,276.946,286.223,253.362,286.223z"/>
		<path style="fill:#997668;" d="M261.663,286.223c-0.15,0-19.777,0-19.777,0c-9.682,0-17.533,7.85-17.533,17.533v12.584    c0,6.926,5.664,12.586,12.585,12.586h67.432C304.37,305.341,285.249,286.223,261.663,286.223z"/>
		<path style="opacity:0.2;fill:#222222;" d="M241.885,286.223c-9.682,0-17.533,7.85-17.533,17.533v12.584    c0,6.926,5.664,12.586,12.585,12.586h24.725v-42.703C261.512,286.223,241.885,286.223,241.885,286.223z"/>
	</g>
	<g>
		<path style="opacity:0.2;fill:#222222;" d="M124.232,286.223c-0.153,0-19.778,0-19.778,0c-9.683,0-17.533,7.85-17.533,17.533    v12.584c0,6.926,5.664,12.586,12.586,12.586h67.43C166.937,305.341,147.816,286.223,124.232,286.223z"/>
		<path style="fill:#997668;" d="M132.533,286.223c-0.152,0-19.777,0-19.777,0c-9.683,0-17.533,7.85-17.533,17.533v12.584    c0,6.926,5.663,12.586,12.586,12.586h67.431C175.239,305.341,156.118,286.223,132.533,286.223z"/>
		<path style="opacity:0.2;fill:#222222;" d="M112.756,286.223c-9.683,0-17.533,7.85-17.533,17.533v12.584    c0,6.926,5.663,12.586,12.586,12.586h24.725v-42.703C132.381,286.223,112.756,286.223,112.756,286.223z"/>
	</g>
</g>















</svg>